<svg xmlns="http://www.w3.org/2000/svg" xmlns:xlink="http://www.w3.org/1999/xlink" width="500" zoomAndPan="magnify" viewBox="0 0 375 374.999991" height="500" preserveAspectRatio="xMidYMid meet" version="1.0"><defs><clipPath id="f851ff756a"><path d="M 102 92 L 271 92 L 271 261.0625 L 102 261.0625 Z M 102 92 " clip-rule="nonzero"/></clipPath><clipPath id="74273181b8"><path d="M 139 172 L 159 172 L 159 189.953125 L 139 189.953125 Z M 139 172 " clip-rule="nonzero"/></clipPath></defs><g clip-path="url(#f851ff756a)"><path fill="#5958b2" d="M 196.476562 260.601562 C 198.0625 253.222656 197.757812 246.199219 195.851562 237.859375 C 204.679688 238.601562 213.136719 233.421875 215.652344 225.132812 C 215.988281 223.664062 215.347656 222.648438 214.84375 222.347656 C 212.832031 221.179688 210.199219 219.796875 208.597656 218.765625 C 206.164062 206.5625 202.113281 204.03125 193.503906 200.148438 L 193.46875 200.128906 C 192.609375 199.707031 192.289062 198.863281 192.320312 198.070312 L 192.574219 193.074219 C 192.691406 190.894531 191.933594 190.238281 190.160156 190.390625 C 159.539062 195.707031 167.625 227.714844 154.640625 240.410156 C 154.640625 240.410156 154.304688 222.429688 158.390625 208.199219 C 162.476562 193.96875 169.769531 192.804688 169.464844 182.21875 C 168.601562 177.105469 166.949219 173.289062 164.5 171.042969 C 151.789062 159.410156 134.164062 157.117188 133.828125 134.257812 C 133.777344 130.578125 142.199219 132.097656 148.648438 132.113281 C 155.097656 132.132812 163.015625 128.839844 169.699219 122.644531 C 176.386719 116.464844 196.238281 117.816406 208.511719 122.203125 C 220.785156 126.59375 240.046875 150.378906 236.90625 155.699219 C 233.765625 161 213.136719 173 210.097656 173.492188 C 207.042969 173.980469 200.492188 164.914062 204.242188 155.628906 C 207.988281 146.34375 207.988281 143.085938 206.453125 138.34375 C 204.898438 133.617188 202.332031 131.183594 202.332031 131.183594 C 202.332031 131.183594 207.363281 139.777344 201.625 152.625 C 195.902344 165.472656 204.375 179.804688 207.347656 179.214844 C 210.316406 178.640625 221.324219 172.75 221.324219 172.75 C 221.324219 172.75 227.570312 203.457031 238.511719 219.375 C 240.652344 222.5 244.621094 227.15625 249.601562 232.828125 C 261.90625 219.003906 269.773438 201.058594 270.804688 181.121094 C 273.234375 134.578125 237.464844 94.890625 190.902344 92.476562 C 144.34375 90.0625 104.65625 125.835938 102.242188 172.394531 C 100.234375 211.121094 124.660156 245.101562 159.722656 256.820312 C 166.8125 259.183594 174.324219 260.652344 182.160156 261.054688 C 187.476562 261.34375 192.269531 260.988281 196.476562 260.601562 Z M 175.035156 134.023438 C 177.28125 134.140625 179.019531 136.0625 178.902344 138.308594 C 178.78125 140.554688 176.859375 142.292969 174.613281 142.175781 C 172.367188 142.058594 170.628906 140.132812 170.746094 137.886719 C 170.867188 135.640625 172.789062 133.902344 175.035156 134.023438 Z M 197.066406 222.449219 C 194.957031 222.328125 193.335938 220.539062 193.453125 218.429688 C 193.554688 216.320312 195.359375 214.699219 197.472656 214.816406 C 199.582031 214.917969 201.203125 216.726562 201.082031 218.835938 C 200.964844 220.929688 199.175781 222.550781 197.066406 222.449219 Z M 197.066406 222.449219 " fill-opacity="1" fill-rule="evenodd"/></g><path stroke-linecap="butt" transform="matrix(0.488943, -0.670932, 0.670932, 0.488943, 62.987139, 117.809903)" fill="none" stroke-linejoin="miter" d="M 4.783894 40.699529 C 4.783584 40.379538 4.671699 35.576313 4.449268 26.28328 C 4.314375 19.866627 4.408615 14.651191 4.737531 10.644578 C 4.808131 9.958517 5.093341 9.407164 5.594195 8.983945 C 6.097819 8.564528 6.687797 8.367465 7.373473 8.397591 C 7.701455 8.432213 8.012548 8.531542 8.30295 8.698349 C 12.124445 7.910414 15.563923 7.732736 18.625188 8.162542 C 23.994503 8.907341 27.476993 11.353206 29.074722 15.48699 C 29.695871 17.473797 29.929564 19.096707 29.779604 20.352949 C 29.63725 21.603648 29.262303 22.726922 28.658566 23.719999 C 28.061402 24.714107 27.298353 25.520532 26.365617 26.142045 C 25.436683 26.760786 24.50002 27.257074 23.551825 27.633678 C 22.607433 28.007511 21.596533 28.290082 20.522927 28.478618 C 17.204335 29.173701 13.508801 29.287629 9.439098 28.824204 C 9.594944 35.085856 9.67799 39.042602 9.677859 40.69618 C 9.6768 41.389785 9.437283 41.971882 8.96311 42.439702 C 8.488937 42.907521 7.916295 43.144349 7.229264 43.144322 C 6.546036 43.141523 5.962907 42.90858 5.487483 42.439949 C 5.018632 41.97235 4.786637 41.390363 4.783894 40.699529 Z M 9.331338 23.994683 C 9.52849 23.961628 9.743301 23.944816 9.97577 23.944245 C 13.522726 24.36943 16.708721 24.283325 19.542069 23.697335 C 22.900104 23.00844 24.693912 21.707021 24.925556 19.779928 C 24.98635 19.328076 24.83989 18.479981 24.482374 17.238413 C 23.606278 14.901765 21.440383 13.487594 17.981919 12.992097 C 15.507462 12.664467 12.67542 12.812845 9.483023 13.433429 C 9.316629 16.29691 9.266411 19.815136 9.331338 23.994683 Z M 9.331338 23.994683 " stroke="#5958b2" stroke-width="1.832948" stroke-opacity="1" stroke-miterlimit="4"/><path stroke-linecap="butt" transform="matrix(0.617409, -0.554997, 0.554997, 0.617409, 81.502631, 93.382647)" fill="none" stroke-linejoin="miter" d="M 5.323816 41.532207 C 5.065402 42.185674 4.623258 42.642348 3.984093 42.902938 C 3.348427 43.166673 2.715401 43.167053 2.078369 42.904433 C 1.441338 42.641813 0.990954 42.19267 0.727219 41.557004 C 0.473274 40.917485 0.473248 40.291104 0.726785 39.671215 C 1.37844 38.080563 2.23559 35.65601 3.291944 32.404557 C 4.357734 29.142606 5.116741 26.939847 5.57211 25.792781 C 5.800799 25.144228 6.727265 22.8326 8.351863 18.86454 C 9.885909 14.947947 11.076258 11.772656 11.919057 9.328877 C 12.150891 8.676825 12.568541 8.198132 13.171652 7.886152 C 13.778262 7.577318 14.402521 7.537423 15.057719 7.765758 C 15.342814 7.863863 15.603807 8.009896 15.830906 8.207712 C 16.48575 8.429402 16.942424 8.871546 17.206867 9.520502 L 29.372051 39.575651 C 29.626703 40.22846 29.624292 40.87163 29.361672 41.508662 C 29.105696 42.145339 28.663198 42.595369 28.024033 42.855959 C 27.391159 43.10955 26.751488 43.110284 26.118309 42.857454 C 25.481278 42.594834 25.037893 42.151982 24.778364 41.532751 L 21.108102 32.045856 C 19.775993 32.120102 19.03142 32.153075 18.864945 32.155273 C 14.465331 32.312853 11.014511 32.393269 8.508985 32.393376 C 7.035324 36.693247 5.971504 39.741856 5.323816 41.532207 Z M 10.309238 27.406423 C 13.046271 27.374001 15.981588 27.311032 19.111688 27.214371 L 14.664598 16.466086 Z M 10.309238 27.406423 " stroke="#5958b2" stroke-width="1.832948" stroke-opacity="1" stroke-miterlimit="4"/><path stroke-linecap="butt" transform="matrix(0.737938, -0.380346, 0.380346, 0.737938, 104.751744, 72.543679)" fill="none" stroke-linejoin="miter" d="M 10.747399 42.952657 C 9.803652 42.68856 9.234662 42.067097 9.044612 41.090426 C 8.941728 40.899768 8.853806 40.690354 8.79352 40.45813 C 6.742722 31.10625 4.230773 21.262599 1.265909 10.942008 C 1.074016 10.287289 1.142592 9.671538 1.467455 9.092599 C 1.792446 8.50314 2.283315 8.115632 2.933852 7.921584 C 3.586544 7.723353 4.204451 7.787746 4.78339 8.112609 C 5.370823 8.431262 5.766824 8.915922 5.965055 9.568614 C 8.048592 16.936437 9.969937 24.660022 11.729091 32.739368 L 15.546904 21.203502 C 17.200768 16.413096 18.437003 12.730804 19.257762 10.152442 C 19.289305 9.639353 19.459124 9.17636 19.769247 8.769802 C 20.07937 8.363244 20.491124 8.077883 21.010846 7.911692 C 21.112642 7.847704 21.262471 7.813765 21.451839 7.816087 C 21.653883 7.814355 21.876582 7.844442 22.132482 7.912815 C 22.65657 8.07707 23.075934 8.37262 23.384362 8.790969 C 23.694818 9.215656 23.848977 9.686829 23.853049 10.212981 C 26.095886 17.117683 28.650449 25.030009 31.522949 33.958454 L 38.560491 9.376841 C 38.753673 8.724737 39.148991 8.235047 39.754811 7.912081 C 40.358604 7.582778 40.978059 7.520926 41.617486 7.718161 C 42.25273 7.91324 42.7319 8.30843 43.061204 8.912223 C 43.38417 9.518043 43.450333 10.129132 43.2512 10.751701 L 34.063564 41.291896 C 33.86456 41.903944 33.463162 42.37462 32.859368 42.703924 C 32.264069 43.027019 31.636121 43.09508 30.984018 42.901898 C 30.397193 42.705308 29.940704 42.348276 29.614551 41.830802 C 29.384169 41.569136 29.202594 41.274397 29.074008 40.948742 C 26.179399 32.278869 23.609359 24.427381 21.35755 17.396305 L 19.543227 23.946133 L 17.39551 30.054158 L 15.64254 35.375764 C 14.925548 37.557664 14.305819 39.530316 13.77917 41.291564 C 13.579651 41.945694 13.188515 42.437539 12.597398 42.76279 C 12.021112 43.079805 11.401658 43.141657 10.747399 42.952657 Z M 10.747399 42.952657 " stroke="#5958b2" stroke-width="1.832948" stroke-opacity="1" stroke-miterlimit="4"/><path stroke-linecap="butt" transform="matrix(0.823647, -0.104021, 0.104021, 0.823647, 156.705887, 50.729853)" fill="none" stroke-linejoin="miter" d="M 4.782953 40.698946 C 4.785108 40.381462 4.67159 35.572333 4.449967 26.286741 C 4.316906 19.867394 4.411087 14.652917 4.73718 10.6439 C 4.809251 9.960579 5.093013 9.403588 5.596624 8.983443 C 6.095566 8.562709 6.689351 8.36737 7.37272 8.401506 C 7.700671 8.433439 8.011032 8.529547 8.302623 8.699166 C 12.120467 7.910311 15.562269 7.733189 18.623948 8.162543 C 23.993422 8.907068 27.479162 11.348681 29.076499 15.486792 C 29.69785 17.476542 29.929229 19.099285 29.779975 20.356201 C 29.636567 21.604371 29.262795 22.723851 28.65807 23.719312 C 28.062682 24.715951 27.297122 25.520364 26.369549 26.143067 C 25.437898 26.760513 24.497644 27.258306 23.554047 27.632369 C 22.605781 28.005842 21.592847 28.290524 20.521092 28.477667 C 17.203525 29.173197 13.509101 29.285216 9.436054 28.827728 C 9.599086 35.084869 9.67809 39.040709 9.677733 40.69584 C 9.675685 41.388005 9.436246 41.969564 8.959417 42.440517 C 8.492513 42.907982 7.912685 43.143024 7.229857 43.142154 C 6.547028 43.141285 5.96488 42.906514 5.488079 42.438432 C 5.020615 41.971528 4.785573 41.3917 4.782953 40.698946 Z M 9.330152 23.995848 C 9.528621 23.964002 9.744584 23.94385 9.976862 23.944729 C 13.522948 24.368863 16.711344 24.283046 19.540871 23.696615 C 22.899863 23.011059 24.691471 21.705459 24.925033 19.780996 C 24.986888 19.328773 24.842648 18.480597 24.482387 17.239957 C 23.606442 14.900298 21.441862 13.488696 17.980488 12.994637 C 15.508129 12.668166 12.672745 12.812794 9.483083 13.434368 C 9.316026 16.296785 9.264853 19.818834 9.330152 23.995848 Z M 9.330152 23.995848 " stroke="#5958b2" stroke-width="1.832948" stroke-opacity="1" stroke-miterlimit="4"/><path stroke-linecap="butt" transform="matrix(0.827319, 0.0689845, -0.0689845, 0.827319, 187.183322, 47.461154)" fill="none" stroke-linejoin="miter" d="M 5.318902 41.531051 C 5.06651 42.184788 4.623032 42.641987 3.983779 42.903039 C 3.349606 43.168389 2.711902 43.164904 2.07653 42.906259 C 1.440768 42.642926 0.992556 42.193977 0.726814 41.555114 C 0.475531 40.919768 0.475109 40.291833 0.725549 39.671311 C 1.381539 38.0821 2.23716 35.65941 3.292413 32.403241 C 4.357044 29.14629 5.117334 26.939299 5.569765 25.796725 C 5.803401 25.144552 6.729754 22.834004 8.353512 18.864689 C 9.887401 14.950084 11.076685 11.772449 11.921365 9.331786 C 12.150312 8.680004 12.567999 8.196626 13.170129 7.886732 C 13.776948 7.576446 14.406443 7.538122 15.058225 7.767069 C 15.344649 7.861225 15.602551 8.009697 15.83154 8.207796 C 16.482931 8.432054 16.944428 8.870452 17.206262 9.519083 L 29.372959 39.577283 C 29.630105 40.226305 29.627401 40.873387 29.364068 41.509149 C 29.110112 42.14413 28.661163 42.592342 28.02699 42.857692 C 27.391643 43.108976 26.754331 43.11018 26.11935 42.856224 C 25.478898 42.593281 25.036157 42.153319 24.781358 41.532431 L 21.105497 32.046385 C 19.780078 32.11913 19.032185 32.153163 18.862209 32.153171 C 14.465502 32.312033 11.01128 32.392308 8.50892 32.393214 C 7.035616 36.694658 5.972538 39.74373 5.318902 41.531051 Z M 10.307684 27.408332 C 13.04332 27.373811 15.979409 27.30841 19.111653 27.21721 L 14.66439 16.464002 Z M 10.307684 27.408332 " stroke="#5958b2" stroke-width="1.832948" stroke-opacity="1" stroke-miterlimit="4"/><path stroke-linecap="butt" transform="matrix(0.797186, 0.231753, -0.231753, 0.797186, 216.719301, 50.488624)" fill="none" stroke-linejoin="miter" d="M 16.276767 43.097038 C 12.03653 43.158624 9.018784 43.144118 7.231251 43.046373 C 6.609997 43.016279 6.07117 42.780919 5.620603 42.3435 C 5.167409 41.897045 4.925098 41.350082 4.892357 40.698094 C 4.859939 40.536017 4.843125 40.393903 4.84512 40.265922 C 4.804217 38.405995 4.721299 34.024959 4.595051 27.118295 C 4.46749 20.207112 4.402048 14.571483 4.404555 10.214613 C 4.401393 9.529526 4.63528 8.951926 5.106218 8.481815 C 5.575842 8.007185 6.152541 7.76603 6.838941 7.767386 C 7.51951 7.765536 8.098423 8.003942 8.566643 8.48523 C 9.045791 8.95354 9.282428 9.531553 9.284278 10.212122 C 9.284591 13.499962 9.304971 16.654567 9.353877 19.688179 C 9.410506 22.714645 9.478908 26.051291 9.555142 29.684564 C 9.637209 33.321041 9.674238 36.162103 9.677895 38.21416 C 11.36818 38.247075 13.965679 38.231852 17.465874 38.169804 C 20.972479 38.096093 23.637174 38.076036 25.459958 38.109632 C 26.145045 38.106469 26.711717 38.353334 27.169009 38.847598 C 27.628193 39.331513 27.857108 39.91667 27.86027 40.601757 C 27.858915 41.288158 27.613364 41.859348 27.120413 42.321159 C 26.633871 42.771306 26.048714 43.000221 25.366831 42.997552 C 23.609351 42.969471 20.575004 42.998991 16.276767 43.097038 Z M 16.276767 43.097038 " stroke="#5958b2" stroke-width="1.832948" stroke-opacity="1" stroke-miterlimit="4"/><path stroke-linecap="butt" transform="matrix(0.735359, 0.385308, -0.385308, 0.735359, 243.719153, 58.775185)" fill="none" stroke-linejoin="miter" d="M 5.320967 41.53316 C 5.068188 42.186188 4.622265 42.642945 3.983196 42.903431 C 3.350479 43.165901 2.712766 43.165387 2.076409 42.903874 C 1.440052 42.64236 0.991631 42.192069 0.726977 41.555184 C 0.472842 40.918099 0.473556 40.290906 0.726934 39.669436 C 1.380718 38.078544 2.237638 35.658778 3.295511 32.40597 C 4.359535 29.144627 5.117442 26.941414 5.5734 25.794148 C 5.800972 25.143703 6.729358 22.829916 8.352407 18.86132 C 9.888132 14.949105 11.075819 11.771702 11.921821 9.331097 C 12.149393 8.680653 12.565342 8.197105 13.171854 7.884621 C 13.776381 7.578489 14.402776 7.537125 15.055404 7.768865 C 15.343409 7.862312 15.600855 8.008955 15.831909 8.20661 C 16.486522 8.431998 16.943079 8.867402 17.205949 9.521158 L 29.373381 39.575656 C 29.629899 40.227427 29.623234 40.873676 29.36172 41.510032 C 29.108542 42.142022 28.660435 42.594611 28.027718 42.857081 C 27.390633 43.111216 26.75292 43.110702 26.116763 42.859708 C 25.478222 42.594026 25.034169 42.152071 24.77825 41.531857 L 21.104381 32.046624 C 19.777757 32.120232 19.031283 32.155458 18.860789 32.154487 C 14.465097 32.311651 11.012964 32.394065 8.506374 32.395378 C 7.036991 36.697795 5.970954 39.7424 5.320967 41.53316 Z M 10.30574 27.404793 C 13.04534 27.371693 15.978056 27.311773 19.114209 27.214315 L 14.660751 16.464276 Z M 10.30574 27.404793 " stroke="#5958b2" stroke-width="1.832948" stroke-opacity="1" stroke-miterlimit="4"/><path stroke-linecap="butt" transform="matrix(0.632137, 0.538162, -0.538162, 0.632137, 270.372145, 73.177766)" fill="none" stroke-linejoin="miter" d="M 19.544016 43.391515 C 17.754687 43.394695 15.997267 43.166789 14.271221 42.714432 C 12.542658 42.251858 11.044843 41.617558 9.771676 40.804366 C 8.339611 39.89163 7.044565 38.60271 5.882954 36.940656 C 4.727975 35.279134 3.825629 33.464331 3.172331 31.499299 C 2.523149 29.524583 2.195249 27.622397 2.195265 25.793271 C 2.194269 23.353243 2.715673 20.975191 3.759475 18.659114 C 4.799695 16.346088 6.266887 14.244252 8.160518 12.36024 C 9.593813 10.929923 11.208227 9.821229 13.003759 9.034159 C 15.120091 8.159363 17.254865 7.719965 19.397866 7.718483 C 21.260156 7.721162 23.120748 8.077513 24.972477 8.793638 C 26.181013 9.247831 27.206442 9.820834 28.051281 10.522861 C 28.899702 11.221838 29.833623 12.14464 30.842828 13.293783 L 32.300496 15.093097 C 32.694882 15.585386 32.894784 16.08876 32.893037 16.60932 C 32.893903 17.263603 32.631197 17.833302 32.107437 18.328633 C 31.591376 18.811231 30.98783 19.053157 30.303433 19.054942 C 29.612403 19.056195 29.006635 18.743864 28.492229 18.125113 L 26.679148 15.930099 C 26.225066 15.433016 25.686209 14.952491 25.06616 14.485473 C 24.449694 14.015405 23.828288 13.648412 23.218259 13.389144 C 21.810641 12.795465 20.404909 12.552408 19.008759 12.647242 C 16.047297 12.90677 13.556133 14.001803 11.53885 15.929291 C 8.568651 18.791619 7.086247 22.080498 7.085004 25.795395 C 7.085471 27.784775 7.61589 29.866777 8.673211 32.03782 C 9.734647 34.199179 10.978274 35.754334 12.407676 36.700234 C 13.291296 37.251835 14.347809 37.687145 15.583313 38.013329 C 16.8224 38.336462 18.094168 38.502005 19.399151 38.503323 C 23.344746 38.499726 25.918555 37.414667 27.118592 35.231298 C 27.350068 34.842671 27.630738 34.090834 27.957017 32.978837 L 28.443022 31.415709 C 28.634605 30.90038 28.934541 30.490548 29.338713 30.195896 C 29.752569 29.90536 30.188404 29.756778 30.639052 29.756249 C 31.293335 29.755383 31.87538 29.98904 32.392353 30.451119 C 32.917025 30.900465 33.180447 31.48571 33.179569 32.203271 C 33.182665 32.497248 33.132166 32.793597 33.035236 33.086217 L 32.692399 34.113439 C 32.142679 35.804964 31.722861 36.959517 31.426845 37.569933 C 30.417035 39.337999 28.996231 40.695887 27.168017 41.640548 C 25.346969 42.579109 23.261771 43.149325 20.916005 43.348147 C 20.619898 43.377774 20.164601 43.394619 19.544016 43.391515 Z M 19.544016 43.391515 " stroke="#5958b2" stroke-width="1.832948" stroke-opacity="1" stroke-miterlimit="4"/><path stroke-linecap="butt" transform="matrix(0.492327, 0.668453, -0.668453, 0.492327, 296.146977, 96.146398)" fill="none" stroke-linejoin="miter" d="M 27.857359 42.80898 C 23.462111 42.873507 16.535267 42.820742 7.087193 42.652478 C 6.437853 42.653412 5.869204 42.409905 5.395405 41.926538 C 4.923397 41.432804 4.68882 40.862662 4.688883 40.2199 C 4.497207 39.821604 4.401424 39.412123 4.401534 38.991457 C 4.466061 36.777464 4.497685 33.592558 4.497203 29.419791 C 4.49672 25.247024 4.513465 22.407624 4.542856 20.915749 C 4.545529 20.356722 4.529574 19.386601 4.497781 18.0016 C 4.463198 16.620388 4.467114 15.337655 4.499161 14.151609 C 4.53021 12.958985 4.625869 11.837322 4.784346 10.796987 C 4.855622 10.335236 5.056299 9.927886 5.378801 9.569354 C 5.707881 9.209825 6.095401 8.969305 6.55073 8.843009 C 6.972709 8.452558 7.492217 8.239125 8.11025 8.209289 C 10.522586 8.139399 13.96745 8.087833 18.444844 8.054589 C 22.922238 8.021346 25.978742 8.00515 27.607776 8.006999 C 28.2938 8.003863 28.869027 8.246372 29.33804 8.72037 C 29.816423 9.18958 30.055786 9.769092 30.055133 10.452325 C 30.05448 11.135559 29.81576 11.713576 29.33997 12.192957 C 28.869761 12.66476 28.29304 12.900335 27.609807 12.899682 C 25.882882 12.89586 22.977898 12.912623 18.887277 12.944389 C 14.796656 12.976155 11.648048 13.006326 9.435871 13.042481 C 9.337281 13.501645 9.304848 14.751688 9.354522 16.786824 C 9.409777 18.814382 9.435195 20.223907 9.440146 21.010611 L 9.437777 23.01326 C 11.027315 22.910051 12.729307 22.860448 14.529598 22.859868 C 16.346835 22.860082 18.395741 22.878988 20.690473 22.921168 C 22.986997 22.95298 24.695183 22.966376 25.805661 22.966141 C 26.488894 22.966795 27.069702 23.201726 27.537717 23.669145 C 28.00673 24.143142 28.238517 24.717073 28.241652 25.403097 C 28.240999 26.086331 28.006067 26.667138 27.536857 27.145521 C 27.069438 27.613536 26.492717 27.849111 25.805695 27.845667 C 24.661324 27.844314 22.93998 27.832915 20.639668 27.798312 C 18.349723 27.765501 16.308393 27.752176 14.508103 27.752756 C 12.72097 27.751339 11.00861 27.79915 9.377603 27.895191 C 9.376387 32.522517 9.363729 35.832423 9.32926 37.823118 C 17.283462 37.948834 23.429977 37.982026 27.761228 37.917114 C 28.45104 37.916769 29.034638 38.147912 29.518601 38.609546 C 30.001566 39.0646 30.245512 39.629956 30.244859 40.313189 C 30.247995 40.999213 30.017849 41.58939 29.567582 42.081724 C 29.112527 42.564689 28.540593 42.809633 27.857359 42.80898 Z M 27.857359 42.80898 " stroke="#5958b2" stroke-width="1.832948" stroke-opacity="1" stroke-miterlimit="4"/><g clip-path="url(#74273181b8)"><path fill="#fffae0" d="M 158.417969 176.96875 C 157.320312 171.328125 150.445312 171.234375 148.75 176.507812 C 147.054688 171.234375 140.175781 171.328125 139.082031 176.96875 C 138.085938 182.089844 148.75 190.167969 148.75 190.167969 C 148.75 190.167969 159.414062 182.089844 158.417969 176.96875 Z M 158.417969 176.96875 " fill-opacity="1" fill-rule="nonzero"/></g></svg>